<?xml version="1.0" encoding="UTF-8" standalone="no"?>
<!-- Generator: Adobe Illustrator 14.0.0, SVG Export Plug-In . SVG Version: 6.00 Build 43363)  -->

<svg
   xmlns:dc="http://purl.org/dc/elements/1.1/"
   xmlns:cc="http://creativecommons.org/ns#"
   xmlns:rdf="http://www.w3.org/1999/02/22-rdf-syntax-ns#"
   xmlns:svg="http://www.w3.org/2000/svg"
   xmlns="http://www.w3.org/2000/svg"
   xmlns:sodipodi="http://sodipodi.sourceforge.net/DTD/sodipodi-0.dtd"
   xmlns:inkscape="http://www.inkscape.org/namespaces/inkscape"
   version="1.1"
   x="0px"
   y="0px"
   width="562.593px"
   height="562.592px"
   viewBox="0 0 562.593 562.592"
   enable-background="new 0 0 562.593 562.592"
   xml:space="preserve"
   id="svg2"
   inkscape:version="0.91 r13725"
   sodipodi:docname="earphone.svg"><metadata
     id="metadata20"><rdf:RDF><cc:Work
         rdf:about=""><dc:format>image/svg+xml</dc:format><dc:type
           rdf:resource="http://purl.org/dc/dcmitype/StillImage" /></cc:Work></rdf:RDF></metadata><defs
     id="defs18" /><sodipodi:namedview
     pagecolor="#ffffff"
     bordercolor="#666666"
     borderopacity="1"
     objecttolerance="10"
     gridtolerance="10"
     guidetolerance="10"
     inkscape:pageopacity="0"
     inkscape:pageshadow="2"
     inkscape:window-width="1366"
     inkscape:window-height="706"
     id="namedview16"
     showgrid="false"
     inkscape:zoom="0.41948696"
     inkscape:cx="246.73048"
     inkscape:cy="281.29599"
     inkscape:window-x="-8"
     inkscape:window-y="-8"
     inkscape:window-maximized="1"
     inkscape:current-layer="svg2" /><g
     id="图层_2"
     style="fill:none;fill-opacity:1"><rect
       width="562.593"
       height="562.593"
       id="rect5"
       style="fill:none;fill-opacity:1" /></g><g
     id="图层_1"><g
       id="图层_x0020_1_1_"><g
         id="_143620744_1_"><path
           id="_143621344_1_"
           fill="none"
           stroke="#FFFFFF"
           stroke-width="8"
           d="M167.391,315.622     c7.778,6.373,9.475,12.299,23.694,12.299h5.743c3.748,0,4.155-1.758,7.181-1.758c4.213,0,8.068,2.637,14.36,2.637h1.436     c4.896,0,12.206-4.592,12.206-10.543c0-4.783-8.049-43.21-9.755-52.197c-4.514-23.781-3.014-33.021-26.146-33.021     c-5.077-4.16-7.897-17.858-7.897-28.113v-7.028h-4.309v-5.271c0-24.657,20.455-49.007,32.113-60.859     c13.885-14.118,34.651-26.994,59.791-26.994h5.744c26.232,0,45.721,13.512,60.912,27.38     c11.143,10.17,30.592,42.005,30.992,63.987c-8.922,0-5.861,8.216-7.02,17.768c-1.262,10.423-2.084,12.153-5.904,19.132     c-11.822,0-13.375,3.528-16.961,14.387c-2.504,7.574-3.07,20.45-4.73,29.354c-1.611,8.64-3.854,19.915-5.439,28.485     c-1.875,10.129-1.139,20.898,8.463,20.898h5.744c2.496,0,7.367-3.514,7.898-3.514c3.555,0,7.92,3.514,12.205,3.514h2.154     c17.301,0,28.721-29.289,28.721-50.955v-6.149c0-13.593-6.885-27.133-16.514-28.113c3.092-5.65,8.615-18.166,8.615-27.234v-7.907     c0-4.909-3.006-8.679-6.461-9.664v-6.149c0-17.085-3.307-32.73-6.916-46.008c-4.393-16.167-10.186-21.799-18.752-32.403     c-6.535-8.089-17.611-16.592-26.506-22.038c-4.93-3.021-10.127-5.857-15.621-8.121c-3.178-1.309-18.154-4.039-19.084-4.761     h-23.694c-0.901,0.699-18.731,3.526-21.545,4.387c-6.73,2.056-13.335,4.156-19.392,7.021     c-14.907,7.054-20.656,12.486-32.3,22.854c-18.958,16.879-29.438,47.555-29.438,87.854h-3.59c-2.521,0-2.872,3.898-2.872,7.028     c0,17.127,7.747,28.581,7.898,36.899c-7.295,0.742-15.078,14.499-15.078,24.599v12.299c0,12.769,5.692,25.843,9.334,34.263     C167.391,315.622,166.673,313.864,167.391,315.622L167.391,315.622z" /><path
           id="_143621008_1_"
           fill="#FFFFFF"
           d="M223.395,458.417l0.336,22.674l-11.801,0.051l0.004-22.547L223.395,458.417z      M338.05,458.417h11.467v22.932H338.05V458.417z M229.128,458.417l104.336-0.334v23.172l-104.336,0.094V458.417z      M262.378,421.728l35.543-1.146h1.146c3.578,10.732,8.314,21.549,10.295,32.67l-57.476-0.057     C255.386,442.712,258.869,432.253,262.378,421.728L262.378,421.728z M292.188,416.423l-22.932,0.719V146.555h24.088     L292.188,416.423L292.188,416.423z M295.628,135.089c-0.996,3.988-0.6,3.491-2.293,6.879l-25.225,1.147     c0-3.218,0.043-2.166-1.146-5.733c-1.054-3.16-0.881-2.883-2.292-5.838l32.103,1.252L295.628,135.089L295.628,135.089z      M253.205,112.157c1.684-1.684,1.256-1.183,4.586-2.293l3.439-1.146v18.346l-9.276-0.003L253.205,112.157L253.205,112.157z      M304.8,109.864c2.588,0.831,1.869,0.561,4.586,1.644v14.408l-9.172,1.147l0.021-18.502L304.8,109.864L304.8,109.864z      M265.817,107.571l10.319-1.146h10.319l9.172,1.146c0.301,4.507,1.146,14.426,1.146,18.345l-32.192,1.146L265.817,107.571     L265.817,107.571z M264.671,102.985c-4.548,1.137-6.167,1.363-10.319,3.439c-3.415,1.708-2.805,1.659-5.732,4.586v18.346     l1.146,1.146l10.319,1.146l3.439,10.318l1.146,275.174h-4.586c-1.183,1.182-1.503,1.531-2.294,3.439     c-3.414,10.242-7.708,20.514-10.318,30.957l-0.676,2.293h-36.014l-2.294,2.293v28.664l1.146,1.146h143.32l1.146-2.293v-27.518     l-2.293-2.293l-36.689-1.146c-3.842-7.682-7.063-19.076-9.174-27.518c-1.367-3.381-2.572-7.061-4.158-8.973h-5.022l1.155-273.08     l1.146-3.439l1.146-2.293l1.146-4.586l1.146-1.146l9.174-1.146l1.146-1.147v-19.491l-2.293-2.293l-4.588-2.293l-4.586-1.146     l-3.439-1.146l-8.025-1.146h-17.198L264.671,102.985L264.671,102.985z" /></g><path
         fill="#FFFFFF"
         d="M281.296,0c77.664,0,147.988,31.492,198.896,82.399s82.4,121.232,82.4,198.896    c0,77.665-31.492,147.989-82.4,198.897s-121.232,82.4-198.896,82.4s-147.989-31.494-198.896-82.4    C31.492,429.284,0,358.96,0,281.295c0-77.664,31.492-147.989,82.399-198.896S203.632,0,281.296,0L281.296,0z M476.185,86.407    C426.304,36.526,357.396,5.669,281.296,5.669S136.289,36.526,86.407,86.407C36.526,136.289,5.669,205.196,5.669,281.295    c0,76.1,30.857,145.006,80.738,194.889c49.882,49.881,118.789,80.738,194.889,80.738s145.008-30.857,194.889-80.738    c49.881-49.883,80.738-118.789,80.738-194.889C556.923,205.196,526.065,136.289,476.185,86.407z"
         id="path12" /></g><circle
       fill="none"
       stroke="#FFFFFF"
       stroke-width="9"
       cx="281.297"
       cy="281.296"
       r="274.324"
       id="circle14" /></g></svg>